<?xml version="1.0" encoding="UTF-8" standalone="no"?>
<!DOCTYPE svg PUBLIC "-//W3C//DTD SVG 1.1//EN" "http://www.w3.org/Graphics/SVG/1.1/DTD/svg11.dtd">
<svg version="1.1" xmlns="http://www.w3.org/2000/svg" xmlns:xlink="http://www.w3.org/1999/xlink" preserveAspectRatio="xMidYMid meet" viewBox="0 0 640 640" width="50" height="50"><defs><path d="M640 320C640 496.61 496.61 640 320 640C143.39 640 0 496.61 0 320C0 143.39 143.39 0 320 0C496.61 0 640 143.39 640 320Z" id="a4lVG3SBhx"></path><path d="M600 312.66C600 478.23 465.57 612.66 300 612.66C134.43 612.66 0 478.23 0 312.66C0 147.08 134.43 12.66 300 12.66C465.57 12.66 600 147.08 600 312.66Z" id="e11wQZsg9k"></path><path d="M505.49 419.45L500.33 438.42L512.56 448.24L529.96 439.08L535.13 420.1L522.89 410.29L505.49 419.45Z" id="d6Haf9lwaz"></path><path d="M520.77 487.35L541.02 449.5L534.27 445.02L507.26 478.38L487 516.23L493.76 520.71L520.77 487.35Z" id="b35hhVvOA9"></path><path d="M444.68 209.09L450.51 137.42L386.69 83.57L317.03 101.39L311.2 173.05L375.02 226.9L444.68 209.09Z" id="a148f56XED"></path><path d="M461.29 359.41L483.2 258.16L409 195.56L312.89 234.2L290.97 335.45L365.18 398.06L461.29 359.41Z" id="ciGcse4Fp"></path><path d="M179.1 567.48L173.6 525.9L127.64 473.27L87.18 462.23L92.68 503.8L138.64 556.43L179.1 567.48Z" id="b4grY8DVMP"></path><path d="M183.71 212.23L254.69 76.8L204.13 34.14L82.58 126.92L11.6 262.35L62.16 305.01L183.71 212.23Z" id="f2rSWZRvuc"></path><path d="M216.4 41.06C239.54 59.93 215.46 127.81 162.66 192.56C109.86 257.31 48.21 294.56 25.07 275.69C1.93 256.83 26.01 188.94 78.81 124.19C131.61 59.44 193.26 22.19 216.4 41.06Z" id="c97tv8T5uZ"></path><path d="M411.87 352.91C440.77 352.91 464.2 367.32 464.2 385.09C464.2 385.76 464.17 386.42 464.1 387.08C484.98 389.78 500.33 398.83 500.33 409.58C500.33 409.58 500.33 409.58 500.33 409.58C500.33 422.47 478.29 432.91 451.1 432.91C438.75 432.91 339.97 432.91 327.62 432.91C300.44 432.91 278.4 422.47 278.4 409.58C278.4 409.58 278.4 409.58 278.4 409.58C278.4 398.35 295.15 388.98 317.45 386.76C319.45 374.58 336.17 365.08 356.5 365.08C360.97 365.08 365.26 365.54 369.26 366.38C378.77 358.23 394.31 352.91 411.87 352.91Z" id="brSpnPlz3"></path><path d="M359.07 352.91C409.23 352.91 449.91 358.57 449.91 365.54C449.91 365.81 449.86 366.07 449.73 366.33C485.97 367.39 512.61 370.94 512.61 375.16C512.61 375.16 512.61 375.16 512.61 375.16C512.61 380.22 474.36 384.32 427.17 384.32C405.73 384.32 234.27 384.32 212.83 384.32C165.65 384.32 127.39 380.22 127.39 375.16C127.39 375.16 127.39 375.16 127.39 375.16C127.39 370.75 156.47 367.07 195.18 366.2C198.65 361.42 227.68 357.69 262.97 357.69C270.73 357.69 278.17 357.87 285.12 358.2C301.61 355 328.58 352.91 359.07 352.91Z" id="b14CqBRsUh"></path><path d="M117.87 452.1C128.64 452.1 137.37 456.93 137.37 462.89C137.37 463.12 137.36 463.34 137.33 463.56C145.11 464.47 150.83 467.5 150.83 471.11C150.83 471.11 150.83 471.11 150.83 471.11C150.83 475.43 142.62 478.93 132.49 478.93C127.89 478.93 91.08 478.93 86.48 478.93C76.35 478.93 68.14 475.43 68.14 471.11C68.14 471.11 68.14 471.11 68.14 471.11C68.14 467.34 74.38 464.2 82.69 463.45C83.44 459.37 89.67 456.18 97.24 456.18C98.91 456.18 100.5 456.33 102 456.62C105.54 453.88 111.33 452.1 117.87 452.1Z" id="a3k86WViy"></path><path d="M337.66 398.36C383.14 398.36 420.02 416.32 420.02 438.48C420.02 439.31 419.97 440.15 419.86 440.97C452.72 444.34 476.87 455.62 476.87 469.02C476.87 469.02 476.87 469.02 476.87 469.02C476.87 485.09 442.19 498.11 399.4 498.11C379.97 498.11 224.49 498.11 205.06 498.11C162.28 498.11 127.58 485.09 127.58 469.02C127.58 469.02 127.58 469.02 127.58 469.02C127.58 455.02 153.95 443.33 189.06 440.57C192.2 425.38 218.52 413.53 250.52 413.53C257.55 413.53 264.3 414.1 270.6 415.16C285.56 404.99 310.01 398.36 337.66 398.36Z" id="a2kf2BZ2FT"></path><path d="M509.72 285.51C538.54 283.34 562.99 295.94 564.33 313.66C564.38 314.33 564.4 315 564.38 315.66C585.4 316.78 601.38 324.65 602.19 335.37C602.19 335.37 602.19 335.37 602.19 335.37C603.16 348.22 581.97 360.29 554.86 362.34C542.54 363.26 444.04 370.69 431.73 371.62C404.62 373.66 381.86 364.9 380.89 352.05C380.89 352.05 380.89 352.05 380.89 352.05C380.04 340.85 396.04 330.25 418.12 326.36C419.2 314.06 435.16 303.33 455.43 301.8C459.89 301.47 464.2 301.6 468.25 302.14C477.12 293.3 492.21 286.83 509.72 285.51Z" id="a1TKtSQ66Q"></path><path d="M346.2 493.33C372.4 493.33 393.64 504.73 393.64 518.79C393.64 519.32 393.61 519.85 393.55 520.37C412.47 522.51 426.39 529.67 426.39 538.17C426.39 538.17 426.39 538.17 426.39 538.17C426.39 548.36 406.41 556.62 381.76 556.62C370.57 556.62 281.02 556.62 269.82 556.62C245.18 556.62 225.2 548.36 225.2 538.17C225.2 538.17 225.2 538.17 225.2 538.17C225.2 529.28 240.38 521.87 260.61 520.11C262.42 510.48 277.58 502.96 296.01 502.96C300.06 502.96 303.94 503.32 307.57 503.99C316.19 497.54 330.28 493.33 346.2 493.33Z" id="aq1USv9F"></path></defs><g><g><g><use xlink:href="#a4lVG3SBhx" opacity="1" fill="#054a91" fill-opacity="1"></use><g><use xlink:href="#a4lVG3SBhx" opacity="1" fill-opacity="0" stroke="#a630d9" stroke-width="0" stroke-opacity="1"></use></g></g><g><use xlink:href="#e11wQZsg9k" opacity="1" fill="#1b5c9c" fill-opacity="1"></use></g><g><use xlink:href="#d6Haf9lwaz" opacity="1" fill="#369105" fill-opacity="1"></use></g><g><use xlink:href="#b35hhVvOA9" opacity="1" fill="#369105" fill-opacity="1"></use></g><g><use xlink:href="#a148f56XED" opacity="1" fill="#369105" fill-opacity="1"></use></g><g><use xlink:href="#ciGcse4Fp" opacity="1" fill="#369105" fill-opacity="1"></use></g><g><use xlink:href="#b4grY8DVMP" opacity="1" fill="#369105" fill-opacity="1"></use></g><g><use xlink:href="#f2rSWZRvuc" opacity="1" fill="#369105" fill-opacity="1"></use></g><g><use xlink:href="#c97tv8T5uZ" opacity="1" fill="#369105" fill-opacity="1"></use></g><g><use xlink:href="#brSpnPlz3" opacity="1" fill="#f9f9f9" fill-opacity="1"></use></g><g><use xlink:href="#b14CqBRsUh" opacity="1" fill="#f9f9f9" fill-opacity="1"></use></g><g><use xlink:href="#a3k86WViy" opacity="1" fill="#f9f9f9" fill-opacity="1"></use></g><g><use xlink:href="#a2kf2BZ2FT" opacity="1" fill="#f9f9f9" fill-opacity="1"></use></g><g><use xlink:href="#a1TKtSQ66Q" opacity="1" fill="#f9f9f9" fill-opacity="1"></use></g><g><use xlink:href="#aq1USv9F" opacity="1" fill="#f9f9f9" fill-opacity="1"></use></g></g></g></svg>