<?xml version="1.0" encoding="UTF-8" standalone="no"?>
<!DOCTYPE svg PUBLIC "-//W3C//DTD SVG 1.1//EN" "http://www.w3.org/Graphics/SVG/1.1/DTD/svg11.dtd">
<svg version="1.1" xmlns="http://www.w3.org/2000/svg" xmlns:xlink="http://www.w3.org/1999/xlink" preserveAspectRatio="xMidYMid meet" viewBox="0 0 700 700" width="700" height="700"><defs><path d="M280 300L140 440L280 440L280 300Z" id="c1hdgDRYrO"></path><path d="M420 300L560 440L420 440L420 300Z" id="a21ZxiYXB"></path><path d="M420 220C420 292.97 388.63 352.22 350 352.22C311.37 352.22 280 292.97 280 220C280 147.03 311.37 87.78 350 87.78C388.63 87.78 420 147.03 420 220Z" id="e4ngZHfF7d"></path><path d="M293.98 355.48L408.03 355.31L408.19 458.63L294.13 458.8L293.98 355.48Z" id="crwBZYDZX"></path><path d="M385.15 423.71L420 473.91L350 473.71L280 473.5L315.15 423.5L350.3 373.5L385.15 423.71Z" id="dqx9xwIsd"></path><path d="M280 200L420 200L420 440L280 440L280 200Z" id="a4QqSDXzMc"></path><path d="M380 200.88L420 200.88L420 439.13L380 439.13L380 200.88Z" id="ius0ZgJz6"></path><path d="M390.91 264.76C390.91 286.83 372.99 304.76 350.91 304.76C328.83 304.76 310.91 286.83 310.91 264.76C310.91 242.68 328.83 224.76 350.91 224.76C372.99 224.76 390.91 242.68 390.91 264.76Z" id="a1t7BjcPUf"></path><path d="M354.48 246.89L354.48 260L354.48 260L354.48 246.89Z" id="awvcYsISa"></path><path d="M356.07 250.78C355.82 260.45 347.54 268.09 337.59 267.83C327.64 267.58 319.76 259.52 320.01 249.85C320.25 240.18 328.54 232.54 338.49 232.8C348.44 233.05 356.32 241.11 356.07 250.78Z" id="bCGMXnKWR"></path><path d="M340 110.07C339.85 115.7 334.88 120.15 328.89 120C322.9 119.84 318.16 115.15 318.31 109.51C318.45 103.88 323.43 99.44 329.41 99.59C335.4 99.74 340.14 104.44 340 110.07Z" id="a2uTkMZ21f"></path><path d="M380 103.71L420 200L380 200L380 103.71Z" id="aZU2Jv8hI"></path><path d="M260 320L280 320L280 440L260 440L260 320Z" id="b5G0pcMwH"></path><path d="M280 300L260 322.97L280 322.97L280 300Z" id="f27psuV6Yy"></path></defs><g><g><g><use xlink:href="#c1hdgDRYrO" opacity="1" fill="#fffff3" fill-opacity="1"></use><g><use xlink:href="#c1hdgDRYrO" opacity="1" fill-opacity="0" stroke="#000000" stroke-width="1" stroke-opacity="1"></use></g></g><g><use xlink:href="#a21ZxiYXB" opacity="1" fill="#efefec" fill-opacity="1"></use><g><use xlink:href="#a21ZxiYXB" opacity="1" fill-opacity="0" stroke="#000000" stroke-width="1" stroke-opacity="1"></use></g></g><g><use xlink:href="#e4ngZHfF7d" opacity="1" fill="#587aea" fill-opacity="1"></use><g><use xlink:href="#e4ngZHfF7d" opacity="1" fill-opacity="0" stroke="#4b4747" stroke-width="2" stroke-opacity="1"></use></g></g><g><use xlink:href="#crwBZYDZX" opacity="1" fill="#4b4747" fill-opacity="1"></use></g><g><use xlink:href="#dqx9xwIsd" opacity="1" fill="#4b4747" fill-opacity="1"></use></g><g><g><filter id="shadow13001482" x="271" y="191" width="159" height="259" filterUnits="userSpaceOnUse" primitiveUnits="userSpaceOnUse"><feFlood></feFlood><feComposite in2="SourceAlpha" operator="in"></feComposite><feGaussianBlur stdDeviation="1"></feGaussianBlur><feOffset dx="1" dy="1" result="afterOffset"></feOffset><feFlood flood-color="#030303" flood-opacity="0.5"></feFlood><feComposite in2="afterOffset" operator="in"></feComposite><feMorphology operator="dilate" radius="1"></feMorphology><feComposite in2="SourceAlpha" operator="out"></feComposite></filter><path d="M280 200L420 200L420 440L280 440L280 200Z" id="csBlBNBo6" fill="white" fill-opacity="1" filter="url(#shadow13001482)"></path></g><use xlink:href="#a4QqSDXzMc" opacity="1" fill="#fffff3" fill-opacity="1"></use><g><use xlink:href="#a4QqSDXzMc" opacity="1" fill-opacity="0" stroke="#000000" stroke-width="1" stroke-opacity="1"></use></g></g><g><use xlink:href="#ius0ZgJz6" opacity="1" fill="#efefec" fill-opacity="1"></use></g><g><use xlink:href="#a1t7BjcPUf" opacity="1" fill="#587aea" fill-opacity="1"></use><g><use xlink:href="#a1t7BjcPUf" opacity="1" fill-opacity="0" stroke="#4b4747" stroke-width="5" stroke-opacity="1"></use></g></g><g><use xlink:href="#awvcYsISa" opacity="1" fill="#fffff3" fill-opacity="1"></use></g><g><use xlink:href="#bCGMXnKWR" opacity="1" fill="#91a6ea" fill-opacity="1"></use></g><g><use xlink:href="#a2uTkMZ21f" opacity="1" fill="#91a6ea" fill-opacity="1"></use></g><g><use xlink:href="#aZU2Jv8hI" opacity="1" fill="#4a6cda" fill-opacity="1"></use></g><g><use xlink:href="#b5G0pcMwH" opacity="1" fill="#efefec" fill-opacity="1"></use></g><g><use xlink:href="#f27psuV6Yy" opacity="1" fill="#efefec" fill-opacity="1"></use></g></g></g></svg>